<svg width="1200" height="931" viewBox="0 0 1200 931" fill="none" xmlns="http://www.w3.org/2000/svg">
<path fill-rule="evenodd" clip-rule="evenodd" d="M15.0012 12.3608H319.64C353.269 11.1336 386.697 18.7169 417.368 34.5306C448.039 50.3444 475.14 73.9696 496.598 103.599C545.883 167.299 563.798 246.079 563.798 328.558C563.798 411.037 545.872 491.03 496.598 554.766C474.61 583.59 447.382 606.577 416.817 622.12C386.252 637.663 353.088 645.388 319.64 644.755H15.0012V474.774H319.64C352.115 474.774 380.123 463.528 398.037 436.027C417.766 404.87 427.639 366.967 426.033 328.546C427.143 290.583 417.305 253.256 398.037 222.314C388.754 208.92 376.778 198.288 363.128 191.324C349.479 184.361 334.559 181.271 319.64 182.317H15.0012V12.3608Z" fill="#FE4E30"/>
<path d="M848.186 12.2598H975.869V312.581H848.186V12.2598Z" fill="#FE4E30"/>
<path fill-rule="evenodd" clip-rule="evenodd" d="M1194.37 12.2598V362.953C1194.37 447.123 1169.73 515.98 1112.61 568.263C1056.43 619.546 986.273 646.628 914.399 644.776C839.399 644.776 769.917 624.368 712.799 568.263C686.668 543.154 665.767 511.692 651.623 476.173C637.478 440.655 630.446 401.974 631.039 362.953V12.2598H779.967V362.953C778.931 381.562 781.974 400.173 788.82 417.097C795.666 434.022 806.098 448.726 819.171 459.875C843.814 484.105 879.653 491.725 914.367 491.725C948.614 493.039 982.342 481.886 1010.69 459.875C1038.69 435.644 1048.77 403.77 1048.77 362.953V12.2598H1194.37Z" fill="#FE4E30"/>
<path d="M10.6724 917.467V795.334H50.4865C58.6198 795.297 66.7334 796.249 74.6901 798.176C81.9766 799.869 88.8962 803.2 95.0473 807.976C101.008 812.736 105.851 819.101 109.147 826.511C112.932 835.598 114.743 845.595 114.429 855.653C114.636 865.228 112.905 874.728 109.372 883.412C106.221 890.917 101.602 897.494 95.8723 902.632C90.0703 907.732 83.4646 911.508 76.4152 913.755C68.9614 916.206 61.2425 917.443 53.4865 917.43L10.6724 917.467ZM45.2044 830.222V882.297H51.8366C58.7625 882.818 65.6339 880.594 71.2938 876.001C73.7226 873.384 75.5963 870.167 76.7717 866.596C77.9472 863.025 78.3932 859.194 78.0759 855.396C78.2404 851.922 77.7158 848.451 76.5414 845.241C75.3669 842.031 73.573 839.167 71.2938 836.862C66.1695 832.204 59.7352 829.844 53.1973 830.222H45.2044ZM177.472 920.872C170.059 921.046 162.678 919.702 155.679 916.903C149.918 914.558 144.651 910.857 140.219 906.038C136.113 901.472 132.966 895.902 131.015 889.745C128.971 883.248 127.952 876.388 128.004 869.484V795.334H163.897V865C163.635 869.931 164.949 874.802 167.594 878.708C168.907 880.37 170.531 881.674 172.345 882.522C174.159 883.37 176.116 883.741 178.072 883.608C180.028 883.741 181.986 883.37 183.8 882.522C185.613 881.674 187.237 880.37 188.551 878.708C191.196 874.802 192.509 869.931 192.247 865V795.334H227.99V869.484C228.05 876.409 226.959 883.285 224.776 889.745C222.669 895.915 219.399 901.478 215.197 906.038C210.653 910.86 205.288 914.559 199.437 916.903C192.39 919.685 184.969 921.025 177.515 920.86L177.472 920.872ZM278.187 848.45L279.847 917.418H246.387V795.334H293.294L312.579 861.031H313.329L330.065 795.334H378.472V917.467H343.63L344.701 848.867L343.801 848.695L323.958 917.467H298.619L279.012 848.499L278.187 848.45ZM431.862 827.246V842.252H441.504C443.738 842.396 445.953 841.709 447.815 840.292C448.632 839.582 449.28 838.65 449.702 837.58C450.123 836.51 450.303 835.337 450.226 834.167C450.264 833.118 450.044 832.078 449.591 831.164C449.139 830.25 448.472 829.5 447.665 828.997C445.578 827.745 443.238 827.149 440.883 827.27L431.862 827.246ZM431.862 868.626V885.176H442.576C445.003 885.301 447.403 884.546 449.433 883.02C450.3 882.309 450.996 881.359 451.457 880.258C451.918 879.157 452.128 877.942 452.069 876.723C452.119 875.287 451.716 873.879 450.933 872.754C450.162 871.727 449.214 870.892 448.147 870.304C447.03 869.666 445.834 869.228 444.601 869.006C443.429 868.785 442.243 868.67 441.054 868.663L431.862 868.626ZM468.204 853.926C470.793 854.647 473.281 855.777 475.597 857.283C478.013 858.839 480.2 860.819 482.079 863.15C484.01 865.545 485.542 868.323 486.601 871.346C487.739 874.639 488.303 878.156 488.262 881.697C488.434 887.563 487.208 893.373 484.715 898.504C482.406 902.975 479.2 906.754 475.362 909.529C471.29 912.439 466.793 914.484 462.087 915.568C457.053 916.783 451.921 917.391 446.776 917.381H398.369V795.334H442.297C446.914 795.356 451.524 795.728 456.097 796.449C460.774 797.129 465.329 798.642 469.597 800.933C473.692 803.144 477.222 806.518 479.851 810.733C482.745 815.757 484.17 821.702 483.922 827.711C484.13 833.511 482.62 839.221 479.637 843.918C476.692 848.236 472.746 851.522 468.247 853.399L468.204 853.926ZM558.205 917.381H522.012L492.901 795.298H530.904L542.369 863.898H542.969L555.333 795.298H592.833L606.258 863.898H606.858L618.472 795.298H655.276L625.737 917.467H589.544L574.458 848.499H573.858L558.205 917.381ZM693.205 795.298H731.358L772.983 917.381H733.919L728.337 899.447H694.405L689.122 917.381H651.119L693.205 795.298ZM711.751 837.891L703.008 868.063H720.354L711.751 837.891ZM834.162 917.467H798.269V867.462L758.005 795.383H801.29L818.187 831.251L834.322 795.383H876.547L834.172 867.462L834.162 917.467ZM917.862 920.921C913.59 920.924 909.326 920.49 905.122 919.623C901.009 918.778 896.971 917.507 893.058 915.825C889.28 914.208 885.622 912.246 882.119 909.958C878.834 907.827 875.749 905.315 872.915 902.461L894.783 875.217C897.671 878.634 901.066 881.438 904.812 883.498C908.782 885.872 913.189 887.131 917.669 887.173C919.558 887.196 921.432 886.779 923.176 885.948C923.974 885.603 924.651 884.967 925.102 884.14C925.553 883.312 925.753 882.337 925.672 881.366C925.7 880.311 925.409 879.277 924.847 878.438C924.017 877.412 923.02 876.579 921.912 875.988C920.034 874.894 918.093 873.945 916.104 873.146C913.64 872.109 910.547 870.884 906.826 869.471C903.261 868.122 899.784 866.484 896.422 864.571C893.2 862.749 890.229 860.397 887.604 857.589C885.012 854.784 882.935 851.414 881.497 847.679C879.898 843.286 879.128 838.556 879.237 833.799C879.052 827.059 880.458 820.386 883.308 814.481C885.923 809.314 889.501 804.869 893.787 801.459C898.149 798.014 903.031 795.522 908.187 794.109C913.367 792.636 918.684 791.883 924.022 791.868C931.373 791.934 938.653 793.511 945.515 796.523C952.642 799.518 959.178 804.097 964.747 809.998L942.43 836.029C940.067 832.627 937.015 829.936 933.537 828.189C930.565 826.557 927.328 825.647 924.033 825.518C921.865 825.423 919.705 825.866 917.701 826.817C916.966 827.15 916.34 827.736 915.909 828.492C915.477 829.249 915.261 830.14 915.29 831.043C915.288 831.94 915.525 832.816 915.969 833.556C916.413 834.295 917.043 834.863 917.776 835.184C920.4 836.525 923.095 837.679 925.844 838.638C929.665 840.018 933.687 841.627 937.908 843.465C942.06 845.259 945.989 847.664 949.597 850.619C953.131 853.51 956.128 857.174 958.415 861.399C960.856 866.207 962.059 871.706 961.887 877.262C962.025 883.935 960.703 890.542 958.04 896.483C955.577 901.808 952.129 906.456 947.937 910.105C943.705 913.762 938.927 916.51 933.837 918.214C928.652 919.978 923.271 920.869 917.862 920.86V920.921ZM973.212 897.989C973.193 894.99 973.733 892.021 974.797 889.28C975.83 886.615 977.316 884.213 979.169 882.211C981.062 880.175 983.257 878.541 985.651 877.385C988.104 876.179 990.748 875.562 993.419 875.572C996.003 875.557 998.561 876.175 1000.92 877.385C1003.24 878.558 1005.36 880.192 1007.18 882.211C1008.99 884.233 1010.44 886.632 1011.46 889.28C1012.53 892.021 1013.07 894.99 1013.05 897.989C1013.06 901.016 1012.52 904.012 1011.46 906.785C1010.47 909.448 1009.01 911.853 1007.18 913.853C1005.35 915.819 1003.23 917.396 1000.92 918.508C998.548 919.663 995.996 920.251 993.419 920.235C990.756 920.246 988.117 919.659 985.651 918.508C983.264 917.413 981.068 915.836 979.169 913.853C977.295 911.873 975.805 909.465 974.797 906.785C973.723 903.974 973.183 900.934 973.212 897.867V897.989ZM1030.22 795.396H1066.42V917.467H1030.22V795.396ZM1086.32 917.479V795.334H1126.14C1134.27 795.297 1142.38 796.249 1150.34 798.176C1157.63 799.87 1164.55 803.201 1170.7 807.976C1176.66 812.736 1181.5 819.101 1184.8 826.511C1188.58 835.598 1190.39 845.595 1190.08 855.653C1190.29 865.228 1188.56 874.728 1185.02 883.412C1181.87 890.917 1177.25 897.494 1171.52 902.632C1165.72 907.732 1159.11 911.508 1152.07 913.755C1144.61 916.206 1136.89 917.443 1129.14 917.43L1086.32 917.479ZM1120.85 830.235V882.309H1127.49C1134.41 882.83 1141.28 880.606 1146.94 876.013C1149.37 873.396 1151.25 870.18 1152.42 866.609C1153.6 863.038 1154.04 859.207 1153.73 855.408C1153.89 851.934 1153.37 848.463 1152.19 845.253C1151.02 842.044 1149.22 839.179 1146.94 836.874C1141.82 832.217 1135.39 829.856 1128.85 830.235H1120.85Z" fill="#FE4E30"/>
</svg>
